<svg xmlns="http://www.w3.org/2000/svg" width="1200" height="630" viewBox="0 0 1200 630">
  <defs>
    <linearGradient id="bg" x1="0" y1="0" x2="1" y2="1">
      <stop offset="0" stop-color="#0b1020" />
      <stop offset="1" stop-color="#111827" />
    </linearGradient>
    <linearGradient id="acc" x1="0" y1="0" x2="1" y2="1">
      <stop offset="0" stop-color="#2f6feb" />
      <stop offset="1" stop-color="#a855f7" />
    </linearGradient>
    <filter id="shadow" x="-50%" y="-50%" width="200%" height="200%">
      <feGaussianBlur in="SourceAlpha" stdDeviation="8" />
      <feOffset dx="0" dy="8" result="off" />
      <feComponentTransfer>
        <feFuncA type="linear" slope="0.35" />
      </feComponentTransfer>
      <feMerge>
        <feMergeNode />
        <feMergeNode in="SourceGraphic" />
      </feMerge>
    </filter>
  </defs>

  <rect width="1200" height="630" fill="url(#bg)" />

  <g filter="url(#shadow)">
    <rect x="80" y="86" width="1040" height="458" rx="34" fill="#0b1224" stroke="rgba(255,255,255,0.10)" />
    <rect x="120" y="130" width="74" height="74" rx="18" fill="url(#acc)" />
    <path
      d="M145 143h25c8.3 0 15 6.7 15 15s-6.7 15-15 15h-16v12h-9v-42Zm9 9v12h16c3.3 0 6-2.7 6-6s-2.7-6-6-6h-16Z"
      fill="#fff"
    />

    <text x="220" y="188" font-size="56" fill="#fff" font-family="system-ui, -apple-system, Segoe UI, Roboto, Helvetica, Arial, sans-serif" font-weight="800">
      Blog
    </text>
    <text x="120" y="270" font-size="30" fill="rgba(255,255,255,0.75)" font-family="system-ui, -apple-system, Segoe UI, Roboto, Helvetica, Arial, sans-serif">
      Personal notes · dev · photo · travel
    </text>

    <g opacity="0.9">
      <rect x="120" y="330" width="960" height="12" rx="6" fill="rgba(255,255,255,0.10)" />
      <rect x="120" y="360" width="860" height="12" rx="6" fill="rgba(255,255,255,0.10)" />
      <rect x="120" y="390" width="920" height="12" rx="6" fill="rgba(255,255,255,0.10)" />
      <rect x="120" y="420" width="780" height="12" rx="6" fill="rgba(255,255,255,0.10)" />
    </g>
  </g>
</svg>
